# File created by Blade
# Date/Time:  Mon Nov 18 17:26:10 2013
# Frame Rate: 100.000 fps
#------------------------------------------------------
:FULLY-SPECIFIED
:DEGREES
132
root -37.685245 -2.760286 38.189822 11.301928 -6.478212 20.908549
Spine 22.427408 -4.556564 2.506404
Spine1 8.319166 -1.508259 4.668642
Spine2 -22.201205 -0.124577 0.001208
NeckDummy -0.037848 0.174670 0.892749 13.864120 -0.760219 0.231067
Neck 3.845626 -13.395414 41.184238
Head -0.292751 -0.051712 0.417530 -6.791492 -3.682922 -1.689049
LeftShoulderDummy -0.083656 0.200728 0.911772 13.842444 -0.918044 0.418323
LeftShoulder 2.940557 -5.542246 13.199928
LeftArm 19.601307 32.086205 24.772714
LeftForeArm 46.897942
LeftForeArmRoll 20.268934
LeftHand -33.791815 -23.990831 12.502290
LeftHandThumb1 12.538603 5.188715
LeftHandIndex1 0.686325 44.800169
LeftHandPinky1 3.300525 66.592693
RightShoulderDummy -0.024015 0.192504 0.860671 13.818174 0.735326 -0.144668
RightShoulder 8.901169 3.922728 9.313490
RightArm 4.263236 69.533630 32.931717
RightForeArm 101.419903
RightForeArmRoll 30.323573
RightHand -45.807498 -23.242111 5.161219
RightHandThumb1 11.251336 5.730192
RightHandIndex1 1.988495 31.033254
RightHandPinky1 7.363134 64.978537
LeftUpLeg -11.234073 23.775541 -48.648505
LeftLeg 44.368600
LeftFoot -0.004299 -0.615752 -1.437074 -22.893953 18.494585 -3.310273
LeftToeBase -0.318152
RightUpLeg -1.110752 17.249008 -31.995575
RightLeg 47.934581
RightFoot -0.402508 0.923317 0.591907 -19.299766 8.084197 -16.775845
RightToeBase -3.828775
133
root -37.767330 -2.774286 38.224747 11.162423 -6.335136 20.935486
Spine 22.382173 -4.556801 2.502269
Spine1 8.303332 -1.517026 4.656526
Spine2 -22.184765 -0.144754 -0.026397
NeckDummy -0.038522 0.176103 0.892083 13.842154 -0.735979 0.195165
Neck 3.872148 -13.392458 41.179729
Head -0.295576 -0.048018 0.414175 -6.750707 -3.708079 -1.695231
LeftShoulderDummy -0.083772 0.201078 0.910775 13.820813 -0.892165 0.376936
LeftShoulder 2.979607 -5.571819 13.304522
LeftArm 19.359870 32.067459 24.536322
LeftForeArm 47.295309
LeftForeArmRoll 20.106999
LeftHand -33.540103 -23.793736 12.420662
LeftHandThumb1 12.671189 5.065840
LeftHandIndex1 0.299344 45.036770
LeftHandPinky1 3.229621 66.367190
RightShoulderDummy -0.025332 0.194602 0.860263 13.795897 0.713072 -0.108860
RightShoulder 8.972288 3.924613 9.338586
RightArm 3.825606 69.259834 32.636604
RightForeArm 101.347818
RightForeArmRoll 30.482474
RightHand -45.713456 -22.593606 4.983722
RightHandThumb1 11.032997 6.215951
RightHandIndex1 2.337182 30.655933
RightHandPinky1 7.815700 64.812114
LeftUpLeg -11.208214 23.785683 -48.406629
LeftLeg 44.194873
LeftFoot 0.000709 -0.616268 -1.433447 -23.040454 18.442427 -3.182536
LeftToeBase -0.300821
RightUpLeg -0.888265 17.206008 -31.662015
RightLeg 47.676711
RightFoot -0.416474 0.936449 0.666905 -19.114168 7.961120 -17.312469
RightToeBase -3.439927
134
root -37.858739 -2.789011 38.262313 11.021226 -6.198274 20.933103
Spine 22.344977 -4.583403 2.515570
Spine1 8.295300 -1.524294 4.674186
Spine2 -22.197801 -0.116667 -0.048978
NeckDummy -0.037303 0.177149 0.892209 13.847241 -0.710815 0.125720
Neck 3.849366 -13.371009 41.154697
Head -0.299282 -0.048842 0.406315 -6.657664 -3.774587 -1.692452
LeftShoulderDummy -0.082031 0.200430 0.910274 13.826076 -0.865448 0.307435
LeftShoulder 3.040505 -5.520442 13.385359
LeftArm 19.260208 32.226055 24.225232
LeftForeArm 47.788330
LeftForeArmRoll 19.989423
LeftHand -33.534384 -23.363398 12.028606
LeftHandThumb1 12.135670 5.033204
LeftHandIndex1 0.608126 44.469909
LeftHandPinky1 3.399762 65.901352
RightShoulderDummy -0.024561 0.196753 0.860934 13.801247 0.689019 -0.040286
RightShoulder 9.006916 3.865732 9.405371
RightArm 3.255305 68.986947 32.181110
RightForeArm 101.338530
RightForeArmRoll 30.549450
RightHand -45.543561 -21.905135 4.933423
RightHandThumb1 10.981477 6.214761
RightHandIndex1 2.366853 30.420759
RightHandPinky1 7.896535 64.755445
LeftUpLeg -11.242800 23.793622 -48.148127
LeftLeg 44.025510
LeftFoot 0.011321 -0.620283 -1.427007 -23.220575 18.487068 -3.058722
LeftToeBase -0.386216
RightUpLeg -0.782707 17.120642 -31.362484
RightLeg 47.515678
RightFoot -0.446980 0.913246 0.612463 -18.982702 8.674032 -17.735597
RightToeBase -3.331553
135
root -37.954037 -2.806695 38.302956 10.856082 -6.046430 20.897316
Spine 22.308349 -4.572674 2.494239
Spine1 8.282051 -1.539040 4.649643
Spine2 -22.178370 -0.154747 -0.031547
NeckDummy -0.038450 0.177729 0.891806 13.848722 -0.731195 0.225020
Neck 3.989774 -13.529059 41.210182
Head -0.296209 -0.049986 0.401574 -6.617146 -3.722297 -1.681875
LeftShoulderDummy -0.080405 0.202335 0.909952 13.827972 -0.875182 0.375333
LeftShoulder 3.166336 -5.751902 13.502885
LeftArm 19.092757 32.219874 23.858439
LeftForeArm 48.313292
LeftForeArmRoll 20.080844
LeftHand -33.451878 -23.001316 11.696852
LeftHandThumb1 12.220327 4.967419
LeftHandIndex1 0.579601 44.234654
LeftHandPinky1 3.271274 65.467770
RightShoulderDummy -0.025294 0.195403 0.860275 13.803278 0.707314 -0.132360
RightShoulder 9.030589 3.977265 9.459303
RightArm 2.821034 68.743535 31.871308
RightForeArm 101.340497
RightForeArmRoll 30.524171
RightHand -45.432510 -21.407302 4.893372
RightHandThumb1 11.102996 6.768089
RightHandIndex1 2.707478 30.311182
RightHandPinky1 8.311608 64.753022
LeftUpLeg -11.221786 23.823377 -47.848131
LeftLeg 43.849728
LeftFoot 0.018998 -0.622016 -1.421150 -23.392237 18.546110 -2.936730
LeftToeBase -0.356006
RightUpLeg -0.754271 17.067684 -31.091600
RightLeg 47.446592
RightFoot -0.467569 0.919133 0.616871 -19.244492 8.921522 -18.233822
RightToeBase -3.242721
